REM DIRINDEX 1\2\4,1\2\5,1\3\6,1\3\7,1\3\8
REM DIRNAME folder01,folder02,folder03,folder04,folder05,folder06,folder07,folder08
TITLE ""
FILE "LV1_003_WORDS.mp3" MP3
  TRACK 01 AUDIO
    TITLE "0:"
    INDEX 01 00:00:00
  TRACK 02 AUDIO
    TITLE "6:cjc094_0105"
    INDEX 01 00:00:07
  TRACK 03 AUDIO
    TITLE "0:"
    INDEX 01 00:01:60
  TRACK 04 AUDIO
    TITLE "7:cjc094_0106"
    INDEX 01 00:02:42
  TRACK 05 AUDIO
    TITLE "0:"
    INDEX 01 00:03:45
  TRACK 06 AUDIO
    TITLE "8:cjc094_0107"
    INDEX 01 00:03:64
  TRACK 07 AUDIO
    TITLE "0:"
    INDEX 01 00:04:50
  TRACK 08 AUDIO
    TITLE "7:cjc094_0108"
    INDEX 01 00:05:20
  TRACK 09 AUDIO
    TITLE "0:"
    INDEX 01 00:06:30
  TRACK 10 AUDIO
    TITLE "8:cjc094_0109"
    INDEX 01 00:06:47
  TRACK 11 AUDIO
    TITLE "0:"
    INDEX 01 00:09:12
  TRACK 12 AUDIO
    TITLE "7:cjc094_0110"
    INDEX 01 00:09:53
  TRACK 13 AUDIO
    TITLE "0:"
    INDEX 01 00:10:47
  TRACK 14 AUDIO
    TITLE "8:cjc094_0111"
    INDEX 01 00:10:68
  TRACK 15 AUDIO
    TITLE "0:"
    INDEX 01 00:11:56
  TRACK 16 AUDIO
    TITLE "7:cjc094_0112"
    INDEX 01 00:12:32
  TRACK 17 AUDIO
    TITLE "0:"
    INDEX 01 00:13:30
  TRACK 18 AUDIO
    TITLE "8:cjc094_0113"
    INDEX 01 00:13:51
  TRACK 19 AUDIO
    TITLE "0:"
    INDEX 01 00:15:09
  TRACK 20 AUDIO
    TITLE "7:cjc094_0114"
    INDEX 01 00:15:56
  TRACK 21 AUDIO
    TITLE "0:"
    INDEX 01 00:16:49
  TRACK 22 AUDIO
    TITLE "8:cjc094_0115"
    INDEX 01 00:16:67
  TRACK 23 AUDIO
    TITLE "0:"
    INDEX 01 00:19:22
  TRACK 24 AUDIO
    TITLE "7:cjc094_0116"
    INDEX 01 00:19:69
  TRACK 25 AUDIO
    TITLE "0:"
    INDEX 01 00:20:65
  TRACK 26 AUDIO
    TITLE "8:cjc094_0117"
    INDEX 01 00:21:13
  TRACK 27 AUDIO
    TITLE "0:"
    INDEX 01 00:25:62
  TRACK 28 AUDIO
    TITLE "7:cjc094_0118"
    INDEX 01 00:26:40
  TRACK 29 AUDIO
    TITLE "0:"
    INDEX 01 00:27:36
  TRACK 30 AUDIO
    TITLE "8:cjc094_0119"
    INDEX 01 00:27:49
  TRACK 31 AUDIO
    TITLE "0:"
    INDEX 01 00:29:56
  TRACK 32 AUDIO
    TITLE "7:cjc094_0120"
    INDEX 01 00:30:42
  TRACK 33 AUDIO
    TITLE "0:"
    INDEX 01 00:31:29
  TRACK 34 AUDIO
    TITLE "8:cjc094_0121"
    INDEX 01 00:31:41
  TRACK 35 AUDIO
    TITLE "0:"
    INDEX 01 00:32:35
  TRACK 36 AUDIO
    TITLE "7:cjc094_0122"
    INDEX 01 00:33:09
  TRACK 37 AUDIO
    TITLE "0:"
    INDEX 01 00:34:02
  TRACK 38 AUDIO
    TITLE "8:cjc094_0123"
    INDEX 01 00:34:22
  TRACK 39 AUDIO
    TITLE "0:"
    INDEX 01 00:35:25
  TRACK 40 AUDIO
    TITLE "7:cjc094_0124"
    INDEX 01 00:35:72
  TRACK 41 AUDIO
    TITLE "0:"
    INDEX 01 00:36:66
  TRACK 42 AUDIO
    TITLE "8:cjc094_0125"
    INDEX 01 00:37:14
  TRACK 43 AUDIO
    TITLE "0:"
    INDEX 01 00:39:45
  TRACK 44 AUDIO
    TITLE "7:cjc094_0126"
    INDEX 01 00:40:23
  TRACK 45 AUDIO
    TITLE "0:"
    INDEX 01 00:41:24
  TRACK 46 AUDIO
    TITLE "8:cjc094_0127"
    INDEX 01 00:41:38
  TRACK 47 AUDIO
    TITLE "0:"
    INDEX 01 00:42:51
  TRACK 48 AUDIO
    TITLE "7:cjc094_0128"
    INDEX 01 00:43:27
  TRACK 49 AUDIO
    TITLE "0:"
    INDEX 01 00:44:30
  TRACK 50 AUDIO
    TITLE "8:cjc094_0129"
    INDEX 01 00:44:48
  TRACK 51 AUDIO
    TITLE "0:"
    INDEX 01 00:45:65
  TRACK 52 AUDIO
    TITLE "7:cjc094_0130"
    INDEX 01 00:46:51
  TRACK 53 AUDIO
    TITLE "0:"
    INDEX 01 00:47:50
  TRACK 54 AUDIO
    TITLE "8:cjc094_0131"
    INDEX 01 00:47:66
  TRACK 55 AUDIO
    TITLE "0:"
    INDEX 01 00:50:21
  TRACK 56 AUDIO
    TITLE "7:cjc094_0132"
    INDEX 01 00:50:72
  TRACK 57 AUDIO
    TITLE "0:"
    INDEX 01 00:51:65
  TRACK 58 AUDIO
    TITLE "8:cjc094_0133"
    INDEX 01 00:52:08
  TRACK 59 AUDIO
    TITLE "0:"
    INDEX 01 00:53:60
  TRACK 60 AUDIO
    TITLE "7:cjc094_0134"
    INDEX 01 00:54:40
  TRACK 61 AUDIO
    TITLE "0:"
    INDEX 01 00:55:32
  TRACK 62 AUDIO
    TITLE "8:cjc094_0135"
    INDEX 01 00:55:51
  TRACK 63 AUDIO
    TITLE "0:"
    INDEX 01 00:56:63
  TRACK 64 AUDIO
    TITLE "7:cjc094_0136"
    INDEX 01 00:57:31
  TRACK 65 AUDIO
    TITLE "0:"
    INDEX 01 00:58:20
  TRACK 66 AUDIO
    TITLE "8:cjc094_0137"
    INDEX 01 00:58:40
  TRACK 67 AUDIO
    TITLE "0:"
    INDEX 01 01:02:24
  TRACK 68 AUDIO
    TITLE "7:cjc094_0138"
    INDEX 01 01:03:00
  TRACK 69 AUDIO
    TITLE "0:"
    INDEX 01 01:03:71
  TRACK 70 AUDIO
    TITLE "8:cjc094_0139"
    INDEX 01 01:04:13
  TRACK 71 AUDIO
    TITLE "0:"
    INDEX 01 01:06:14
  TRACK 72 AUDIO
    TITLE "7:cjc094_0140"
    INDEX 01 01:06:71
  TRACK 73 AUDIO
    TITLE "0:"
    INDEX 01 01:07:68
  TRACK 74 AUDIO
    TITLE "8:cjc094_0141"
    INDEX 01 01:08:11
  TRACK 75 AUDIO
    TITLE "0:"
    INDEX 01 01:09:63
  TRACK 76 AUDIO
    TITLE "7:cjc094_0142"
    INDEX 01 01:10:37
  TRACK 77 AUDIO
    TITLE "0:"
    INDEX 01 01:11:35
  TRACK 78 AUDIO
    TITLE "8:cjc094_0143"
    INDEX 01 01:11:56
  TRACK 79 AUDIO
    TITLE "0:"
    INDEX 01 01:14:06
  TRACK 80 AUDIO
    TITLE "7:cjc094_0144"
    INDEX 01 01:14:61
  TRACK 81 AUDIO
    TITLE "0:"
    INDEX 01 01:15:60
  TRACK 82 AUDIO
    TITLE "8:cjc094_0145"
    INDEX 01 01:16:05
  TRACK 83 AUDIO
    TITLE "0:"
    INDEX 01 01:18:64
